<svg id="kity_svg_6" xmlns="http://www.w3.org/2000/svg" xmlns:xlink="http://www.w3.org/1999/xlink" version="1.1" width="570" height="277" style="background: rgb(251, 251, 251); visibility: visible;" viewBox="0 0 570 277"><defs id="kity_defs_7"><linearGradient id="kity_linearGradient_17" x1="0" y1="0" x2="0" y2="1"><stop id="kity_stop_18" offset="0" stop-color="rgb(255, 255, 255)"></stop><stop id="kity_stop_19" offset="1" stop-color="rgb(204, 204, 204)"></stop></linearGradient><marker id="kity_marker_2" orient="auto" refX="6" refY="0" viewBox="-7 -7 14 14" markerWidth="7" markerHeight="7" markerUnits="userSpaceOnUse"><path id="kity_path_3" fill="rgb(115, 161, 191)" stroke="none" d="M6,0A6,6,0,1,1,-6,0A6,6,0,1,1,6,0"></path></marker></defs><g id="kity_g_8"><g id="minder1" text-rendering="optimize-speed"><g id="minder_connect_group1"><path id="kity_path_31" fill="none" stroke="rgb(115, 161, 191)" stroke-width="1" d="M287.0000000000001,141.5A163.5,108,0,0,1,450.5000000000001,33.5"></path><path id="kity_path_39" fill="none" stroke="rgb(115, 161, 191)" stroke-width="1" d="M287.0000000000001,141.5A158.5,33,0,0,1,445.5000000000001,108.5"></path><path id="kity_path_55" fill="none" stroke="rgb(115, 161, 191)" stroke-width="1" d="M287.0000000000001,141.5A158.5,33,0,0,0,445.5000000000001,174.5"></path><path id="kity_path_71" fill="none" stroke="rgb(115, 161, 191)" stroke-width="1" d="M287.0000000000001,141.5A158.5,99,0,0,0,445.5000000000001,240.5"></path><path id="kity_path_79" fill="none" stroke="rgb(115, 161, 191)" stroke-width="1" d="M287.0000000000001,141.5A139.5,102,0,0,0,147.5000000000001,39.5"></path><path id="kity_path_103" fill="none" stroke="rgb(115, 161, 191)" stroke-width="1" d="M287.0000000000001,141.5A158.5,29,0,0,0,128.5000000000001,112.5"></path><path id="kity_path_111" fill="none" stroke="rgb(115, 161, 191)" stroke-width="1" d="M287.0000000000001,141.5A158.5,37,0,0,1,128.5000000000001,178.5"></path><path id="kity_path_127" fill="none" stroke="rgb(115, 161, 191)" stroke-width="1" d="M287.0000000000001,141.5A158.5,103,0,0,1,128.5000000000001,244.5"></path></g><g id="minder_node1"><path id="node_outline1" fill="rgb(115, 161, 191)" stroke="rgb(115, 161, 191)" d="M251.5000000000001,121.5h71a5,5,0,0,1,5,5v30a5,5,0,0,1,-5,5h-71a5,5,0,0,1,-5,-5v-30a5,5,0,0,1,5,-5z" stroke-width="3"></path><g id="node_text1" fill="white"><text id="kity_text_22" text-rendering="inherit" font-size="16" dy=".8em" y="131.09999990463257" x="270.5000000000001">排序</text></g></g><g id="kity_g_12" display="none"><path id="kity_path_13" fill="none" stroke="none" d="M270.5000000000001,141.5h0v0h0z"></path></g><g id="kity_g_14" display="none"><path id="kity_path_15" fill="rgba(0, 92, 153, 0.5)" stroke="none" d="M28.500000000000114,74.5h98v20h-98z"></path><path id="kity_path_16" fill="none" stroke="rgb(0, 76, 128)" d="M28.500000000000114,94.5L126.50000000000011,94.5" stroke-width="1"></path></g><g id="minder_node2" opacity="1"><g id="node_expander1" style="cursor: pointer;" display="none"><path id="kity_path_36" fill="white" stroke="gray" d="M451.5000000000001,33.50000000000001A6,6,0,1,1,439.5000000000001,33.50000000000001A6,6,0,1,1,451.5000000000001,33.50000000000001"></path><path id="kity_path_37" fill="none" stroke="gray"></path></g><path id="node_outline2" fill="rgb(238, 243, 246)" stroke="rgb(115, 161, 191)" d="M455.5000000000001,20.5h92a3,3,0,0,1,3,3v20a3,3,0,0,1,-3,3h-92a3,3,0,0,1,-3,-3v-20a3,3,0,0,1,3,-3z" stroke-width="1"></path><g id="node_text2" fill="black"><text id="kity_text_33" text-rendering="inherit" font-size="14" dy=".8em" y="24.40000009536744" x="472.5000000000001">分支主题</text></g></g><g id="minder_node3"><g id="node_expander2" style="cursor: pointer;" display="none"><path id="kity_path_44" fill="white" stroke="gray" d="M446.5000000000001,108.5A6,6,0,1,1,434.5000000000001,108.5A6,6,0,1,1,446.5000000000001,108.5"></path><path id="kity_path_45" fill="none" stroke="gray" d="M436.0000000000001,108.5L445.0000000000001,108.5"></path></g><path id="node_outline3" fill="rgb(238, 243, 246)" stroke="rgb(115, 161, 191)" d="M450.5000000000001,95.5h92a3,3,0,0,1,3,3v20a3,3,0,0,1,-3,3h-92a3,3,0,0,1,-3,-3v-20a3,3,0,0,1,3,-3z" stroke-width="1"></path><g id="node_text3" fill="black"><text id="kity_text_41" text-rendering="inherit" font-size="14" dy=".8em" y="99.40000009536743" x="467.5000000000001">分支主题</text></g></g><g id="minder_node5"><g id="node_expander4" style="cursor: pointer;" display="none"><path id="kity_path_60" fill="white" stroke="gray" d="M446.5000000000001,174.5A6,6,0,1,1,434.5000000000001,174.5A6,6,0,1,1,446.5000000000001,174.5"></path><path id="kity_path_61" fill="none" stroke="gray" d="M436.0000000000001,174.5L445.0000000000001,174.5"></path></g><path id="node_outline5" fill="rgb(238, 243, 246)" stroke="rgb(115, 161, 191)" d="M450.5000000000001,161.5h92a3,3,0,0,1,3,3v20a3,3,0,0,1,-3,3h-92a3,3,0,0,1,-3,-3v-20a3,3,0,0,1,3,-3z" stroke-width="1"></path><g id="node_text5" fill="black"><text id="kity_text_57" text-rendering="inherit" font-size="14" dy=".8em" y="165.40000009536743" x="467.5000000000001">分支主题</text></g></g><g id="minder_node7"><g id="node_expander6" style="cursor: pointer;" display="none"><path id="kity_path_76" fill="white" stroke="gray" d="M446.5000000000001,240.5A6,6,0,1,1,434.5000000000001,240.5A6,6,0,1,1,446.5000000000001,240.5"></path><path id="kity_path_77" fill="none" stroke="gray"></path></g><path id="node_outline7" fill="rgb(238, 243, 246)" stroke="rgb(115, 161, 191)" d="M450.5000000000001,227.5h92a3,3,0,0,1,3,3v20a3,3,0,0,1,-3,3h-92a3,3,0,0,1,-3,-3v-20a3,3,0,0,1,3,-3z" stroke-width="1"></path><g id="node_text7" fill="black"><text id="kity_text_73" text-rendering="inherit" font-size="14" dy=".8em" y="231.40000009536743" x="467.5000000000001">分支主题</text></g></g><g id="minder_node8" opacity="1"><g id="node_expander7" style="cursor: pointer;" display="none"><path id="kity_path_84" fill="white" stroke="gray" d="M158.5000000000001,39.50000000000001A6,6,0,1,1,146.5000000000001,39.50000000000001A6,6,0,1,1,158.5000000000001,39.50000000000001"></path><path id="kity_path_85" fill="none" stroke="gray" d="M148.0000000000001,39.50000000000001L157.0000000000001,39.50000000000001"></path></g><path id="node_outline8" fill="rgb(238, 243, 246)" stroke="rgb(115, 161, 191)" d="M23.500000000000114,22.5h119a3,3,0,0,1,3,3v28a3,3,0,0,1,-3,3h-119a3,3,0,0,1,-3,-3v-28a3,3,0,0,1,3,-3z" stroke-width="1"></path><g id="node_text8" fill="black"><text id="kity_text_81" text-rendering="inherit" font-size="14" dy=".8em" y="30.40000009536744" x="40.500000000000114">冒泡排序</text></g><a id="kity_a_134" xmlns:xlink="http://www.w3.org/1999/xlink" xlink:href="https://github.com/Schofi/Like-Classical-algorithm/blob/master/Sorting%20Algorithm/BubbleSort.cpp" target="_blank" xlink:title="https://github.com/Schofi/Like-Classical-algorithm/blob/master/Sorting%20Algorithm/BubbleSort.cpp" style="cursor: pointer;"><path id="kity_path_136" fill="rgba(255, 255, 255, 0)" stroke="none" d="M105.50000000000011,28.500000000000007h16a4,4,0,0,1,4,4v14a4,4,0,0,1,-4,4h-16a4,4,0,0,1,-4,-4v-14a4,4,0,0,1,4,-4z"></path><path id="kity_path_135" fill="#666" stroke="none" d="M120.11400000000012,44.724000000000004h-1.278c-1.668,0,-3.07,-1.07,-3.599,-2.556h4.877c0.707,0,1.278,-0.571,1.278,-1.278V38.33400000000001c0,-0.707,-0.571,-1.278,-1.278,-1.278h-4.877C115.76600000000012,35.571000000000005,117.16800000000012,34.50000000000001,118.83600000000011,34.50000000000001h1.278c2.116,0,3.834,1.716,3.834,3.834V40.89000000000001C123.94800000000012,43.00800000000001,122.23000000000012,44.724000000000004,120.11400000000012,44.724000000000004zM108.61200000000011,39.61200000000001c0,-0.707,0.573,-1.278,1.278,-1.278h7.668c0.707,0,1.278,0.571,1.278,1.278S118.26500000000011,40.89000000000001,117.5580000000001,40.89000000000001H109.89000000000011C109.18500000000012,40.89000000000001,108.61200000000011,40.31900000000001,108.61200000000011,39.61200000000001zM106.05600000000011,38.33400000000001V40.89000000000001c0,0.707,0.573,1.278,1.278,1.278h4.877c-0.528,1.486,-1.932,2.556,-3.599,2.556H107.33400000000012C105.21600000000011,44.724000000000004,103.50000000000011,43.00800000000001,103.50000000000011,40.89000000000001V38.33400000000001C103.50000000000011,36.21600000000001,105.21600000000011,34.50000000000001,107.33400000000012,34.50000000000001h1.278c1.667,0,3.071,1.071,3.599,2.556H107.33400000000012C106.62900000000012,37.056000000000004,106.05600000000011,37.62700000000001,106.05600000000011,38.33400000000001z"></path></a></g><g id="minder_node11"><g id="node_expander10" style="cursor: pointer;" display="none"><path id="kity_path_108" fill="white" stroke="gray" d="M139.5000000000001,112.5A6,6,0,1,1,127.50000000000011,112.5A6,6,0,1,1,139.5000000000001,112.5"></path><path id="kity_path_109" fill="none" stroke="gray"></path></g><path id="node_outline11" fill="rgb(238, 243, 246)" stroke="rgb(115, 161, 191)" d="M31.500000000000114,99.5h92a3,3,0,0,1,3,3v20a3,3,0,0,1,-3,3h-92a3,3,0,0,1,-3,-3v-20a3,3,0,0,1,3,-3z" stroke-width="1"></path><g id="node_text11" fill="black"><text id="kity_text_105" text-rendering="inherit" font-size="14" dy=".8em" y="103.40000009536743" x="48.500000000000114">分支主题</text></g></g><g id="minder_node12"><g id="node_expander11" style="cursor: pointer;" display="none"><path id="kity_path_116" fill="white" stroke="gray" d="M139.5000000000001,178.5A6,6,0,1,1,127.50000000000011,178.5A6,6,0,1,1,139.5000000000001,178.5"></path><path id="kity_path_117" fill="none" stroke="gray" d="M129.0000000000001,178.5L138.0000000000001,178.5"></path></g><path id="node_outline12" fill="rgb(238, 243, 246)" stroke="rgb(115, 161, 191)" d="M31.500000000000114,165.5h92a3,3,0,0,1,3,3v20a3,3,0,0,1,-3,3h-92a3,3,0,0,1,-3,-3v-20a3,3,0,0,1,3,-3z" stroke-width="1"></path><g id="node_text12" fill="black"><text id="kity_text_113" text-rendering="inherit" font-size="14" dy=".8em" y="169.40000009536743" x="48.500000000000114">分支主题</text></g></g><g id="minder_node14"><g id="node_expander13" style="cursor: pointer;" display="none"><path id="kity_path_132" fill="white" stroke="gray" d="M139.5000000000001,244.50000000000003A6,6,0,1,1,127.50000000000011,244.50000000000003A6,6,0,1,1,139.5000000000001,244.50000000000003"></path><path id="kity_path_133" fill="none" stroke="gray"></path></g><path id="node_outline14" fill="rgb(238, 243, 246)" stroke="rgb(115, 161, 191)" d="M31.500000000000114,231.50000000000003h92a3,3,0,0,1,3,3v20a3,3,0,0,1,-3,3h-92a3,3,0,0,1,-3,-3v-20a3,3,0,0,1,3,-3z" stroke-width="1"></path><g id="node_text14" fill="black"><text id="kity_text_129" text-rendering="inherit" font-size="14" dy=".8em" y="235.40000009536746" x="48.500000000000114">分支主题</text></g></g></g></g></svg>